<svg width="276" height="104" viewBox="0 0 276 104" fill="none" xmlns="http://www.w3.org/2000/svg">
<path d="M18.7946 0.000372797C12.0704 2.81159 -5.49969 21.5338 4.1923 50.1688C15.9976 85.0477 68.2536 116.478 99.2506 97.2052C108.449 91.4856 103.165 79.1134 99.2506 73.6573C87.1116 56.7371 75.1513 46.2929 53.6575 39.8512C49.8765 38.7181 38.1513 37.2929 32.6513 46.2929C27.1513 55.2929 37.9605 66.8643 50.503 75.3653C77.9976 94.0004 108.274 104.444 129.655 94.9986C162.701 80.4006 142.751 21.7255 111.998 31.0004C102.179 33.9615 96.6884 54.4953 116.093 72.2478C135.498 90.0004 186.914 112.506 213.18 92.0004C221.517 85.4918 229.048 78.9212 226.807 64.9834C224.566 51.0457 217.039 36.0004 199.216 31.0004C166.175 21.7313 153.728 49.7393 188.799 65.3194C205.04 72.5343 223.196 74.578 238.312 72.2478C253.427 69.9176 261.77 67.8466 274.998 50.1688" stroke="black"/>
</svg>
