<svg width="119" height="56" viewBox="0 0 119 56" fill="none" xmlns="http://www.w3.org/2000/svg">
<path fill-rule="evenodd" clip-rule="evenodd" d="M19.2898 0.341486C19.0805 0.110583 18.9164 -0.00274438 18.6879 5.04466e-05C18.6227 0.000685972 18.5396 0.0837961 18.441 0.243157L18.3528 0.39828L18.2574 0.589879L18.1014 0.943765L17.9894 1.22274L17.8713 1.53515L17.7475 1.88011L17.5518 2.45669L17.3451 3.10163L17.1286 3.81197L16.9034 4.58479L16.6706 5.41715L16.3505 6.61447L15.9382 8.242L13.8557 8.2828L11.6242 8.33879L10.0497 8.386L8.50916 8.43678L7.65295 8.47193L7.26823 8.49549L6.90967 8.52575L6.5752 8.56474C4.95961 8.78491 4.16957 9.4087 3.03916 11.5793L2.8082 12.0343L2.77215 12.043L2.51406 12.1173L2.31222 12.1866L2.07532 12.2797C1.23844 12.6317 -0.014454 13.4102 0.000126112 14.9131C0.0235454 17.1674 4.94068 20.6535 8.77734 20.526C9.27355 20.5091 9.84995 19.9791 10.3581 19.2604L10.5344 18.9994C10.5633 18.9548 10.5918 18.9097 10.62 18.8641L10.7851 18.5855L10.9409 18.2993C10.9911 18.203 11.0395 18.1058 11.0859 18.0085L11.2187 17.7163C11.2398 17.6677 11.2603 17.6191 11.2801 17.5707L11.392 17.2823C11.9129 15.8544 11.8407 14.6715 10.3599 15.5178L10.1577 15.628C7.17419 17.1801 3.40458 15.9334 3.39825 15.3653C3.39785 15.3198 3.41564 15.2641 3.4519 15.1998L3.52017 15.0974C3.58867 15.0071 3.68625 14.9049 3.81343 14.7943L3.9803 14.6579L4.1758 14.5147C4.21078 14.4904 4.24696 14.4658 4.28434 14.441L4.52317 14.2904C4.5654 14.2649 4.60884 14.2394 4.6535 14.2137L4.93613 14.0585L5.2482 13.9019C5.41164 13.8235 5.58619 13.7451 5.77199 13.6675L6.1586 13.5135C6.29248 13.4626 6.4314 13.4123 6.57537 13.3628L7.02253 13.2168C8.48684 12.7632 10.4112 12.4004 12.8249 12.3196L13.89 12.2892L15.0104 12.2657C13.3464 19.9502 11.7522 30.0206 11.659 38.7633L11.6603 38.8632L11.6534 39.8048L11.6604 40.4332L11.6752 40.8134C11.7411 42.0278 11.9869 42.7079 12.799 42.7016C13.6052 43.7374 14.5938 44.0686 14.8811 44.0647C15.0759 44.0627 15.1743 43.674 15.2223 43.1045L15.2438 42.7773L15.257 42.4216L15.2634 42.045L15.2642 41.457L15.2551 40.4019L15.255 39.761C15.3164 33.9739 16.1634 27.9458 17.241 22.526L17.5148 21.1842L17.7964 19.8707C17.8438 19.6543 17.8915 19.4392 17.9394 19.2255L18.2289 17.9599L18.5212 16.7301L18.8144 15.5388L19.1067 14.3891L19.396 13.284L19.6804 12.2262C20.082 12.2258 20.4843 12.2258 20.8856 12.2264L22.5054 12.2308L28.1474 12.2661L30.7416 12.275L31.7935 12.2673L32.2644 12.2565C33.5396 12.2138 34.9915 10.9062 36.1242 9.58296L36.4387 9.20555L36.7333 8.83377L37.0054 8.47409C37.0487 8.41551 37.091 8.35771 37.1322 8.30082L37.3657 7.97143C37.4023 7.91871 37.4376 7.86717 37.4717 7.81694L37.6609 7.53241L37.8823 7.17889L37.9847 7.00151L38.0478 6.87831C38.0621 6.84699 38.0693 6.82579 38.0692 6.81577C38.0679 6.60545 37.6642 5.94295 37.417 6.13092C37.3704 6.16631 37.3237 6.20108 37.2771 6.23525L36.9976 6.43304C36.951 6.46482 36.9044 6.49601 36.8577 6.52663L36.5765 6.70353L36.2923 6.86717C36.1969 6.91956 36.1008 6.96982 36.0038 7.01805L35.7094 7.15672C35.6102 7.20096 35.5098 7.24325 35.4079 7.28368L35.0977 7.39946C35.0451 7.41785 34.9922 7.4358 34.9388 7.45332L34.6129 7.55331L34.2747 7.64343L33.9229 7.7242L33.5559 7.79614L33.1723 7.85977L32.7708 7.91562L32.3498 7.9642L31.908 8.00605L31.203 8.05733L30.443 8.09639L29.9035 8.11651L29.0411 8.13911L28.1108 8.15419L27.1077 8.16352L20.8321 8.18548L21.0067 7.60181L21.9685 4.45733L22.053 4.15456L22.0695 4.0773L22.0717 4.05533C22.0752 3.76351 22.0095 3.52723 21.7503 3.16558L21.604 2.97347L21.4221 2.75545C21.3886 2.71667 21.3534 2.6766 21.3166 2.63514L21.0747 2.36882L20.4597 1.71769C20.3523 1.60203 20.2537 1.49226 20.1627 1.38837L19.9116 1.09432L19.4372 0.512856L19.2898 0.341486ZM88.4901 2.03755C88.2712 1.8113 88.0997 1.70006 87.8612 1.7023C87.7581 1.70321 87.617 1.82581 87.4455 2.0607L87.3113 2.25778C87.2881 2.29408 87.2644 2.33211 87.2402 2.37183L87.0904 2.63042L86.931 2.92891C86.9037 2.98193 86.876 3.03658 86.848 3.09284L86.6757 3.44954L86.4956 3.84393L86.3086 4.27515L86.1153 4.7423L85.8153 5.50849L85.6096 6.06163L85.4001 6.64763L85.1877 7.2656L84.9731 7.91465C82.3378 7.90993 79.7025 7.92132 77.0674 7.94883C73.4703 7.98564 71.6553 10.5279 71.3305 12.0238C71.3252 12.518 71.9223 12.5023 72.0973 12.3695C72.964 11.7149 74.8434 11.4704 76.6833 11.4507C77.3229 11.4443 77.9992 11.4426 78.7017 11.4448L80.1387 11.4539C80.383 11.4562 80.6295 11.4589 80.8777 11.4619L82.3848 11.4838L83.9156 11.5124C83.7447 12.1526 83.5763 12.8164 83.4106 13.5039L83.1801 14.2009L82.4332 16.4192L81.434 19.3144L80.6496 21.529L79.8071 23.8442L79.3824 24.9823L78.9286 26.174L78.3635 27.617L77.9185 28.7156L77.4844 29.748L77.1687 30.4696L76.8634 31.139L76.6666 31.553L76.4758 31.9391L76.2916 32.2952L76.1146 32.6195C76.0857 32.6708 76.0571 32.7206 76.0289 32.7691L75.8635 33.042L75.7066 33.2784C75.4524 33.6408 75.2359 33.8427 75.0683 33.8444C74.6464 33.8487 74.5994 32.904 74.7663 31.4707L74.8339 30.9453L74.9176 30.3839L75.016 29.7908C75.0335 29.6896 75.0516 29.5872 75.0701 29.4838L75.1875 28.8519L75.3155 28.1996L75.5242 27.1928L75.7481 26.1656L76.0611 24.7905L76.458 23.1133L77.3507 19.4517L77.5726 18.5062L77.6569 18.1097L77.6895 17.9258L77.7013 17.8115C77.7105 16.9282 77.0477 14.8526 75.5602 14.867C73.6163 14.887 71.6686 16.822 69.9989 19.2184L69.6037 19.8016C69.279 20.2938 68.9663 20.7998 68.6679 21.308L68.3169 21.9181C68.1449 22.2229 67.9784 22.5268 67.8179 22.8274L67.5049 23.4231L67.2086 24.0054L66.9299 24.5696L66.6697 25.1114L66.3159 25.8721L66.0085 26.5572L65.6073 27.4898L65.2736 28.3105L66.8249 20.746L67.2318 18.6336L67.335 18.0368L67.3629 17.8437L67.373 17.73C67.3772 17.3427 67.1615 17.0108 66.903 16.6824L66.5611 16.258L66.4511 16.1132C66.4155 16.0642 66.3826 16.0124 66.3512 15.9587L66.1696 15.6213L66.0724 15.4496C65.8314 15.053 65.4706 14.7006 64.5441 14.7106C64.4488 14.7115 64.3351 14.856 64.2073 15.1203L64.1089 15.3406L64.0055 15.6036L63.8977 15.907L63.7858 16.2486L63.6701 16.6262L63.4905 17.255L63.3048 17.9522L63.1144 18.7101L62.9205 19.5211L62.7245 20.3778L62.5278 21.2726C62.5009 21.3484 62.4731 21.4256 62.4446 21.504L62.2645 21.9892L62.067 22.5014L61.8533 23.0375L61.5044 23.8793L61.2544 24.4611L60.8559 25.3564L60.5759 25.9638L60.2858 26.5759L59.9865 27.1894L59.6791 27.8012L59.3645 28.4081L59.0438 29.0068L58.718 29.5942L58.3881 30.1671L58.0551 30.7223C57.9994 30.8132 57.9436 30.9032 57.8878 30.9922L57.5521 31.5148C56.2636 33.4708 54.9635 34.8598 53.9093 34.8711L53.8439 34.8672L53.7623 34.8532L53.6665 34.8271L53.5582 34.787L53.4393 34.731L53.3116 34.6572C53.2897 34.6434 53.2675 34.6287 53.2451 34.6131L53.1077 34.509C52.4789 33.9914 51.7241 32.7881 51.5998 30.1152C51.576 29.6003 51.569 29.0847 51.5788 28.5694C55.4757 28.2749 60.5169 23.6268 60.5169 19.0813C60.5169 16.9092 59.7052 16.1101 58.9764 15.8559L58.8035 15.805C58.7467 15.7912 58.6909 15.7805 58.6366 15.7724L58.4783 15.7556C58.0285 15.3587 57.3815 15.0642 56.4503 15.0747C53.2938 15.1063 49.0273 18.7448 47.7516 25.0373L47.2117 26.4441L46.5965 28.008L46.1606 29.0873L45.7154 30.1606L45.2705 31.1977L44.9428 31.9334L44.7295 32.3967L44.5217 32.8339L44.3206 33.2411C44.2877 33.3063 44.2551 33.3701 44.2229 33.4324L44.0342 33.7876L43.8551 34.1035C43.5366 34.6441 43.2732 34.967 43.0984 34.967C42.8961 34.967 42.7579 34.6215 42.671 34.0508L42.6287 33.718C42.6162 33.6001 42.6054 33.4754 42.5961 33.3448L42.5728 32.9357L42.5584 32.4949C42.5567 32.4191 42.5553 32.3421 42.5543 32.264L42.5523 31.784L42.558 31.2832L42.571 30.7659L42.5907 30.2366L42.6322 29.4294L42.667 28.8889L42.7071 28.3515L42.776 27.5607L42.8541 26.8014L42.9106 26.3198L43.0007 25.6455L43.0638 25.2342L43.1286 24.8585L46.1555 19.184L46.7942 17.9683L47.4738 16.6584L48.2968 15.0404L48.9187 13.7847L49.3557 12.8781L49.7615 12.0105L50.0122 11.4579L50.245 10.9285L50.4585 10.4249L50.6512 9.94936C50.6814 9.87258 50.7108 9.79707 50.7392 9.72288L50.8975 9.29398L51.031 8.89915C51.1918 8.39649 51.2822 7.99105 51.2855 7.70828C51.321 4.48776 47.0637 2.35038 46.1904 2.35959C45.8054 2.3534 45.4449 2.54753 45.2382 2.87224C45.1309 2.94777 44.9957 3.12184 44.8379 3.3832L44.6974 3.62835C44.6488 3.71701 44.5985 3.81254 44.5466 3.91467L44.3864 4.2406L44.2176 4.60457L43.9498 5.21839L43.7627 5.67056C43.731 5.74868 43.699 5.82815 43.6669 5.90894L43.3715 6.6709L43.1689 7.21592L42.9627 7.78874L42.6484 8.69667L42.3304 9.6583L42.1176 10.3266L41.7991 11.3659L41.5885 12.0811L41.3801 12.8123L41.1747 13.5579C41.1408 13.6833 41.107 13.8092 41.0734 13.9356L40.874 14.6999L40.6795 15.4747L40.4908 16.2584L40.3086 17.0494L40.1336 17.8462L39.9667 18.6472L39.8087 19.4508L39.6603 20.2555C39.6364 20.3896 39.6129 20.5237 39.5899 20.6577L39.4574 21.461L39.3364 22.2614L39.2278 23.0573L39.1322 23.8472L39.0897 24.2394L37.7132 27.4247L36.9677 29.102L36.3418 30.461L36.0937 30.983L35.727 31.7331L35.4875 32.2066L35.253 32.6554L35.0244 33.0764L34.8027 33.4663L34.5889 33.8221C34.5539 33.8784 34.5193 33.9331 34.4851 33.9862L34.2847 34.2851C33.9263 34.7955 33.6189 35.0949 33.3883 35.0972C33.0393 35.1008 32.9127 34.7322 32.8741 33.9976L32.8625 33.6604L32.8601 33.0708L32.8705 32.3605C32.9336 29.5959 33.261 27.1753 33.6868 25.1128L33.8409 24.3998L34.0015 23.7166L34.1671 23.0635L34.336 22.4405L34.5065 21.8478L34.6772 21.2856L34.8462 20.7539L35.0121 20.2529L35.2515 19.5594L35.9011 17.7549L36.0304 17.3675L36.0948 17.1492L36.1397 16.963L36.1637 16.809L36.1673 16.7441C36.1739 16.1868 32.1875 15.8477 31.5812 18.5516L31.5904 18.4715L31.6004 18.3191L31.6021 18.1034L31.5936 17.9314L31.5741 17.7418C31.457 16.8553 30.9143 15.5609 28.7403 15.5834C25.284 15.6189 18.583 21.7681 18.583 32.5142C18.583 34.8687 19.0218 35.9831 19.5607 36.6581L19.7033 36.8247C19.7274 36.851 19.7516 36.8766 19.7759 36.9016L19.9229 37.0442C19.9475 37.0669 19.9722 37.0891 19.9969 37.1109L20.1452 37.2367L20.649 37.6403L20.7832 37.7582L20.9956 37.963L21.2614 38.2119C21.8443 38.736 22.2063 38.874 23.206 38.8632C24.7027 38.8484 26.2045 37.0322 27.2315 35.4471L27.4883 35.0402C27.5292 34.9737 27.5691 34.908 27.608 34.8432L27.829 34.467L28.0237 34.1213L28.1902 33.8142L28.3831 33.4434L28.5404 33.1241L28.589 33.4678L28.6948 34.1253L28.7678 34.5283L28.8531 34.9551L28.9499 35.3862C29.1374 36.1686 29.3788 36.8753 29.6518 36.969C29.795 37.0181 29.9147 37.122 30.0383 37.2537L30.3713 37.6253C30.7691 38.0501 31.3572 38.5123 32.6557 38.4991C33.7601 38.488 34.8826 37.0172 35.9557 35.0238L36.2229 34.5151L36.4879 33.9879L36.7503 33.4455L37.0099 32.891L37.3937 32.0439L37.7632 31.2036C37.8705 30.9566 37.9768 30.71 38.082 30.4648L38.699 29.0202L38.6711 29.4518L38.6505 29.9133L38.6368 30.3978L38.6291 31.1534L38.6362 31.9231L38.6488 32.4329L38.6676 32.9321L38.7068 33.6466L38.74 34.0901L38.7788 34.4996C38.7857 34.5646 38.7928 34.6279 38.8001 34.6894L38.8467 35.0351C38.9205 35.5171 39.0111 35.8273 39.116 35.8635C39.2771 35.919 39.4237 36.1048 39.5873 36.3518L39.8902 36.8225C40.3593 37.5379 41.0342 38.3825 42.3645 38.3689C43.1344 38.3612 43.9916 37.4502 44.8495 36.0721L45.1068 35.6451L45.3637 35.1926C45.4064 35.1153 45.4491 35.0369 45.4918 34.9577L45.7469 34.4721C45.7893 34.3895 45.8316 34.3061 45.8739 34.222L46.1262 33.7091C46.168 33.6223 46.2098 33.5348 46.2514 33.4468L46.4997 32.9124L46.8657 32.091L47.1047 31.534L47.4543 30.691C47.77 34.4031 48.9892 36.6614 50.2057 36.6496C50.3643 36.6476 50.5213 36.7745 50.6949 36.9544L51.0291 37.3188C51.3889 37.7076 51.8377 38.1202 52.481 38.1139C54.7297 38.0909 56.8272 36.0357 58.6335 33.3661L58.9794 32.8422C59.1505 32.5767 59.3188 32.3064 59.4842 32.0324L59.8109 31.4801L60.1296 30.9204L60.44 30.3556L60.7419 29.7881L61.0351 29.22C61.0136 29.3501 60.9926 29.4779 60.9721 29.6034L60.8032 30.6739L60.6634 31.6306L60.5516 32.4811L60.4922 32.9929L60.4445 33.463L60.4083 33.8938L60.3831 34.2875C60.3811 34.3271 60.3792 34.3661 60.3775 34.4045L60.3747 34.4711L60.3657 34.8132C60.3525 35.9476 60.6418 37.0479 61.31 37.3279L61.7185 37.4991L62.4556 37.8031L62.7841 37.9314L63.0858 38.0412C64.0948 38.3903 64.6101 38.3576 64.619 37.525L64.6259 37.2538C64.7082 35.1555 65.4574 32.6295 66.4994 30.095L66.7777 29.4339C66.8251 29.3238 66.8729 29.2137 66.9213 29.1037L67.2167 28.4452L67.5217 27.7903L67.8348 27.1409L68.1546 26.4986L68.4795 25.8649L68.8082 25.2416L69.139 24.6304L69.4706 24.0328L69.8015 23.4505L70.1301 22.8852L70.6157 22.0727L71.0881 21.3077L71.5421 20.5958L71.973 19.9425L72.3756 19.3535L72.745 18.8343L72.9704 18.5297L73.1774 18.2603L73.3644 18.0278L73.53 17.8336L73.6728 17.6797C73.8036 17.5463 73.8979 17.4756 73.9491 17.475C74.0447 17.4741 74.0457 17.6301 73.9762 17.9191L73.9197 18.1312L73.7993 18.52L73.6409 18.9886L73.2314 20.1444L72.6458 21.8136L72.2837 22.8981L72.1004 23.4709L71.9176 24.0619L71.737 24.6697L71.5602 25.2926C71.5311 25.3976 71.5023 25.5032 71.4737 25.6093L71.3055 26.252C71.2781 26.36 71.251 26.4686 71.2242 26.5776L71.0682 27.2365C71.0178 27.4577 70.9691 27.6804 70.9223 27.9043L70.7881 28.5794L70.6673 29.2603C70.4588 30.5127 70.3254 31.7863 70.3112 33.0373C70.2915 34.7988 70.6453 36.434 71.5751 36.8625C71.8107 36.9704 72.0337 37.0894 72.2489 37.2097L72.8759 37.5645C73.4211 37.8658 73.9451 38.1062 74.5396 38.0995C75.0629 38.0945 75.7382 37.4184 76.4794 36.3203L76.7288 35.939L76.9824 35.5285L77.2394 35.0908L77.4992 34.628C77.5427 34.5489 77.5863 34.4689 77.6299 34.3879L77.8925 33.8913L78.1561 33.3747L78.42 32.8402L78.8148 32.0093L79.0762 31.439L79.3355 30.8579L79.5919 30.2681L79.9694 29.3716L80.2209 28.7553C80.6357 27.7262 81.0268 26.6908 81.3786 25.6946C81.1636 27.9372 81.0421 30.1878 81.0143 32.4406L81.0079 32.9613L81.0075 33.696L81.0166 34.0562C81.0433 34.7608 81.1272 35.3494 81.3602 35.4297C81.5213 35.4853 81.668 35.6711 81.8317 35.9182L82.1348 36.3891C82.6042 37.1048 83.2792 37.9495 84.6088 37.9352C85.3533 37.9352 86.3105 36.8832 87.3293 35.3025L87.6219 34.8369C88.7122 37.0991 91.3781 38.1981 94.1874 37.8274C96.1996 37.5632 98.9129 35.8385 99.4916 33.1517L100.137 30.5107L100.608 28.6988L100.784 28.0409L101.161 26.6789L101.563 25.2935L101.771 24.6065L101.982 23.931L102.196 23.2727L102.411 22.6375L102.626 22.031C102.662 21.9327 102.697 21.8358 102.733 21.7404L102.947 21.1879C103.514 19.7697 104.058 18.8123 104.493 18.8079C104.871 18.8041 105.004 19.2647 104.982 20.0583L104.965 20.3932C104.962 20.4288 104.959 20.465 104.956 20.5017L104.95 20.5733L104.911 20.958C104.903 21.0247 104.895 21.0927 104.886 21.1619L104.793 21.8178L104.718 22.2893L104.54 23.3061L103.936 26.4999L103.706 27.7615L103.487 29.0529L103.384 29.705L103.288 30.359L103.2 31.0129L103.121 31.6648L103.052 32.313L102.994 32.9555L102.95 33.5905C102.925 34.0109 102.909 34.425 102.905 34.8303C102.895 35.715 104.638 37.7787 106.127 37.763C108.919 37.7345 111.053 34.3969 112.465 31.1736L112.721 30.5715L112.96 29.977C112.999 29.8788 113.036 29.7812 113.073 29.6842L113.287 29.1106L113.483 28.5573L113.662 28.0292L113.823 27.5314L114.033 26.8524L114.202 26.2697L114.365 25.6718L114.477 25.2305L114.4 28.1009L114.32 30.8171L114.234 33.3798L114.141 35.7899L114.06 37.6086L113.97 39.3305L113.897 40.5587L113.791 42.1122L113.674 43.5701L113.578 44.601L113.475 45.5784L113.401 46.2005L113.324 46.7989L113.244 47.3738L113.159 47.9252L113.07 48.4531C113.055 48.5392 113.039 48.6242 113.024 48.7083L112.928 49.2011L112.828 49.6706L112.723 50.1168C112.706 50.1892 112.687 50.2607 112.669 50.3312L112.557 50.7426L112.44 51.1308C112.4 51.2564 112.359 51.3781 112.318 51.4959L112.19 51.838C111.559 53.4357 110.734 54.2274 109.637 54.2389C107.598 54.2586 106.657 51.5507 106.586 50.2165C106.429 47.3277 107.549 45.9279 108.516 45.2615L108.714 45.1339L108.904 45.0257L109.085 44.9355L109.253 44.8617L109.405 44.8029L109.539 44.7577L109.699 44.7118L109.838 44.6812C110.238 44.4787 110.569 43.8449 110.816 43.1986L110.942 42.8473C110.961 42.7894 110.98 42.732 110.998 42.6754L111.097 42.3487L111.178 42.0573L111.263 41.7193L111.305 41.5329C111.311 41.0387 110.713 41.0545 110.538 41.1872C109.671 41.8419 107.793 42.0877 105.953 42.1061L104.886 42.1032L103.604 42.084L86.4832 41.6745L75.838 41.4609L71.0469 41.3877L64.9134 41.3199L61.8155 41.2986L58.436 41.2865L56.1086 41.2858L52.2569 41.2998L49.2145 41.3259L47.7107 41.3444L44.7459 41.3927L42.5661 41.4396L40.4298 41.496L38.3424 41.5626L36.9807 41.6128L35.6447 41.6678L33.6924 41.7597L32.4278 41.8274L31.1945 41.9005L29.9942 41.979L28.8284 42.0632L27.6988 42.1531L26.6069 42.2489L25.5544 42.3507C25.0383 42.4032 24.5375 42.4579 24.053 42.5151L23.1059 42.6327C22.7976 42.6729 22.4968 42.7143 22.2038 42.7567C20.9415 42.9393 19.4754 44.3172 18.2875 45.7301L17.9561 46.1338L17.6423 46.5333L17.3487 46.9227L17.0776 47.296L16.8318 47.6471L16.6135 47.9701L16.3433 48.3886L16.1494 48.7099L16.0666 48.8601L16.0239 48.952L16.0184 48.9743C16.0158 49.182 16.3814 49.7591 16.6865 49.6618C17.2225 49.49 17.7983 49.3254 18.4114 49.1678L19.1648 48.9819C19.4218 48.9211 19.6846 48.8613 19.9531 48.8026L20.7753 48.6298C21.0549 48.5732 21.3401 48.5177 21.6305 48.4632L22.5178 48.3029L23.4361 48.1486C23.5917 48.1234 23.7486 48.0985 23.9067 48.0738L24.87 47.9284L25.862 47.7889C26.0297 47.7661 26.1985 47.7436 26.3685 47.7213L27.4019 47.5902L28.4617 47.4646L29.5469 47.3445L30.6567 47.2295L32.3653 47.0668L34.1238 46.9153L35.929 46.7747L37.1569 46.6867L38.4032 46.6032L40.3051 46.4863L42.2432 46.3788L44.878 46.2497L46.888 46.1629L49.6073 46.0599L50.9816 46.0136L53.755 45.9307L57.2583 45.8443L60.0811 45.7878L64.3311 45.7217L67.7634 45.6829L69.6298 45.6666L74.2611 45.6388L77.0053 45.6295L81.4977 45.6237L97.8184 45.642L102.634 45.6302C102.029 46.6292 101.7 47.7768 101.762 48.9204C101.931 52.0647 104.752 56.0503 109.715 55.9995C112.545 55.9705 114.459 53.4282 115.78 49.3034L115.97 48.6886C115.986 48.6344 116.001 48.5801 116.017 48.5254L116.033 48.4722L116.061 48.3729L116.238 47.7254C116.296 47.506 116.352 47.2831 116.407 47.0569L116.568 46.3681C116.585 46.2912 116.603 46.214 116.62 46.1364L116.646 46.0163L116.796 45.2982L116.939 44.5614L117.075 43.8066L117.205 43.0343L117.328 42.2453L117.445 41.4402L117.556 40.6196L117.661 39.7842L117.76 38.9347L117.9 37.6352L117.987 36.753L118.108 35.4077L118.183 34.497L118.288 33.112L118.353 32.1768L118.473 30.2812L118.58 28.3561L118.699 25.9162L118.809 23.3261L118.895 21.0921L118.999 18.1425L118.999 17.8392C118.979 16.8212 118.747 15.7688 117.886 15.778L117.677 15.7748C116.99 15.7464 116.382 15.5466 115.869 15.315L115.574 15.1733C115.526 15.1495 115.48 15.1255 115.435 15.1017L115.175 14.9612L114.833 14.7697L114.637 14.6646C114.243 14.4626 114.04 14.4431 114.065 14.913C114.124 16.0007 114.051 17.2172 113.878 18.4995L113.784 19.1458C113.75 19.3629 113.713 19.5815 113.674 19.8014L113.549 20.4644L113.41 21.1332C113.386 21.245 113.362 21.357 113.336 21.4692L113.179 22.1432L113.009 22.8185C112.98 22.9311 112.951 23.0437 112.921 23.1562L112.736 23.8302L112.542 24.5013C112.509 24.6127 112.475 24.724 112.442 24.8351L112.235 25.4982L112.022 26.154L111.802 26.8005L111.577 27.4361C111.539 27.541 111.501 27.6454 111.463 27.7493L111.232 28.3652L110.998 28.9658L110.762 29.5494C110.723 29.6451 110.683 29.74 110.644 29.8342L110.406 30.3888L110.169 30.922C110.13 31.009 110.09 31.095 110.051 31.18L109.816 31.6778L109.583 32.1497L109.353 32.5941L109.128 33.0091L108.908 33.393L108.694 33.7441L108.487 34.0605C108.013 34.7573 107.604 35.1573 107.31 35.1603C107.213 35.1612 107.191 35.0005 107.223 34.7032L107.252 34.485L107.323 34.0854L107.462 33.4261L108.08 30.7054L108.377 29.3039L108.495 28.7083C109.022 25.9871 109.474 22.7321 109.306 19.615C109.211 17.8536 108.749 16.2197 107.792 15.7938C107.549 15.6859 107.318 15.5669 107.095 15.4466L106.445 15.0917C105.879 14.7903 105.339 14.5495 104.744 14.5555C104.271 14.5606 103.747 15.1141 103.201 16.0318L102.996 16.3927C102.927 16.5184 102.858 16.6495 102.789 16.7855L102.58 17.2082L102.371 17.6586L102.161 18.1344L101.952 18.6336L101.637 19.4215L101.325 20.2499L101.118 20.8209L100.912 21.4046L100.608 22.2989L100.31 23.2093L100.018 24.1286L99.82 24.77C99.4276 26.0521 99.0611 27.3239 98.7353 28.4971C98.6971 28.4 98.6581 28.3027 98.6185 28.2051L98.374 27.6153L97.8592 26.4057L97.5992 25.782C96.6949 23.5736 95.8832 21.0858 96.1483 17.9416C96.2217 17.9367 96.293 17.9316 96.3624 17.9261L96.7559 17.8895C98.3639 17.7134 98.7292 17.2954 98.7506 16.1019L98.7498 15.8125L98.7393 15.4941C98.7324 15.3366 98.777 15.1727 98.8198 15.0156L98.8508 14.8992L98.8745 14.7947L98.8894 14.6945L98.8915 14.5995C98.8737 14.3078 98.6037 14.1091 97.5145 14.1436L97.1426 14.1625C95.325 14.2847 93.2957 16.0054 93.3904 16.823L92.4809 19.0763L90.8251 23.0674L90.0733 24.8438L89.2968 26.6512L88.6749 28.0743L88.0665 29.4398L87.627 30.4054L87.2078 31.3048L86.8147 32.1233L86.5697 32.617L86.3403 33.0639C86.3035 33.1343 86.2674 33.2025 86.232 33.2686L86.0291 33.6375C85.9969 33.6943 85.9655 33.7487 85.935 33.8007L85.7622 34.0818C85.5733 34.3734 85.4295 34.5346 85.3426 34.5346C85.0392 34.5346 84.8918 34.104 84.8335 33.3888L84.8138 33.0653C84.8113 33.0086 84.8093 32.9506 84.8076 32.8912L84.8021 32.5202L84.8046 32.1207L84.8139 31.6952C85.068 24.8543 86.3416 18.0896 88.5925 11.6242L94.1723 11.7752L96.147 11.8144L96.9927 11.8174C98.2946 11.8046 99.7986 10.612 100.997 9.37094L101.331 9.01602C101.385 8.95697 101.438 8.89806 101.49 8.83941L101.794 8.49153C101.843 8.43439 101.891 8.37775 101.938 8.32174L102.206 7.9941L102.446 7.68728L102.658 7.40715L102.836 7.15957L102.98 6.95039L103.086 6.7855L103.151 6.67074C103.166 6.6415 103.174 6.62159 103.174 6.61199C103.177 6.40561 102.77 5.74705 102.506 5.92582L101.992 6.27026L101.516 6.57418C101.465 6.60579 101.414 6.6367 101.363 6.66691L101.065 6.84005L100.772 6.99737C100.384 7.1969 99.9999 7.35616 99.58 7.48292L99.2578 7.57202C98.8175 7.68301 98.3311 7.76343 97.7581 7.82104L97.3114 7.86009L96.8286 7.8913L96.3056 7.91542L95.7388 7.93315L95.1243 7.94524L94.4583 7.95241L93.0832 7.95515L90.0024 7.93832L90.8198 5.96798L91.0189 5.46407L91.0624 5.33167L91.0977 5.10703C91.1119 4.94215 91.0764 4.81603 90.9041 4.60078L90.7835 4.45991L90.626 4.29151L90.4272 4.08944L89.7137 3.38547C89.6014 3.2722 89.4983 3.16469 89.4032 3.06295L89.1406 2.77496L88.6443 2.20545L88.4901 2.03755ZM28.734 17.9196C26.8126 17.9417 23.447 23.9397 23.3526 33.4396C23.3422 34.461 23.546 35.6322 23.8938 35.6282C24.5739 35.6203 25.4748 34.5475 26.3108 32.9309L26.5272 32.4971C26.563 32.4229 26.5985 32.3477 26.6339 32.2717L26.8438 31.8048L27.048 31.3183C27.2489 30.8228 27.4394 30.301 27.6146 29.7623L27.7845 29.2183C28.3049 27.4797 28.654 25.6017 28.6709 23.8779C28.674 23.5874 28.8064 23.2578 28.9823 22.8766L29.2681 22.2645C29.565 21.6108 29.8632 20.827 29.873 19.8713C29.8856 18.6435 29.4095 18.1876 29.0678 18.0186L28.9597 17.9722C28.9428 17.966 28.9266 17.9606 28.911 17.9557L28.8275 17.9337L28.734 17.9196ZM92.9238 24.0308L93.2405 23.0696C93.3581 24.0733 93.5171 25.0686 93.6803 26.0344L93.8756 27.1777L94.0606 28.2845C94.2064 29.1894 94.3265 30.0477 94.3834 30.8383C94.5501 33.1636 93.7684 35.5415 92.1623 35.5415C90.6382 35.5415 90.3915 33.9542 90.4097 32.8204L90.4177 32.5767L90.4406 32.2501L90.4693 31.9851L90.5117 31.7006L90.6253 31.7253L90.8344 31.7591C90.8623 31.7628 90.8916 31.7663 90.9222 31.7696L91.1188 31.7852C91.223 31.7905 91.3352 31.7914 91.4507 31.7847C92.1177 31.7453 92.9908 31.1275 92.9908 29.6986C92.9908 28.5405 92.4566 27.7873 91.7205 27.5205C91.7707 27.3803 91.8205 27.2408 91.8697 27.1022L92.1578 26.2827L92.5609 25.1107L92.9238 24.0308ZM56.4912 17.0137C54.9071 16.7245 52.5056 20.7771 52.0248 26.833C55.7266 25.9838 57.7156 17.4935 56.4912 17.0137ZM47.6854 7.0268C47.7502 6.9505 47.8059 6.91309 47.8516 6.91309C48.176 6.91309 48.345 7.56376 48.2568 8.41424C48.2374 8.59979 48.1976 8.82839 48.1402 9.09332L48.0413 9.51714L47.9179 9.99046C47.8954 10.0732 47.872 10.1578 47.8477 10.2441L47.6914 10.7822L47.5158 11.3573L47.3228 11.9643C47.2893 12.0678 47.2551 12.1725 47.2204 12.2782L47.0051 12.9236L46.7775 13.5884L46.5395 14.2675L46.1676 15.3021L45.7838 16.3407L45.3949 17.3663L45.1362 18.0344L44.8802 18.6843L44.5058 19.6138L44.6483 18.7351L44.7908 17.891L44.9331 17.081L45.075 16.3047L45.2162 15.562L45.3566 14.8524L45.4958 14.1756L45.6337 13.5313L45.77 12.9192L45.9044 12.3389L46.0368 11.7902L46.167 11.2726L46.2946 10.7858L46.4194 10.3296L46.5413 9.90357L46.6599 9.5074L46.8313 8.96843L46.9409 8.6455L47.0464 8.35127L47.1476 8.08544L47.2443 7.84766L47.3363 7.63762L47.4233 7.45498L47.5052 7.29941L47.5815 7.17059C47.5938 7.15133 47.6058 7.13318 47.6176 7.11611L47.6854 7.0268Z" fill="black"/>
</svg>
